<mxfile host="drawio-plugin" modified="2022-05-15T14:21:49.157Z" agent="5.0 (Windows NT 6.2; Win64; x64) AppleWebKit/537.36 (KHTML, like Gecko) Chrome/89.0.4389.114 Safari/537.36" etag="OModEFZtb2vdqwldskhe" version="15.5.4" type="embed"><diagram id="23iRSUPoRavnBvh4doch" name="Page-1"><mxGraphModel dx="1139" dy="782" grid="0" gridSize="10" guides="1" tooltips="1" connect="1" arrows="1" fold="1" page="1" pageScale="1" pageWidth="827" pageHeight="1169" math="0" shadow="0"><root><mxCell id="0"/><mxCell id="1" parent="0"/><mxCell id="2" value="WeatherController" style="swimlane;fontStyle=1;align=center;verticalAlign=top;childLayout=stackLayout;horizontal=1;startSize=26;horizontalStack=0;resizeParent=1;resizeParentMax=0;resizeLast=0;collapsible=1;marginBottom=0;fillColor=#09555B;fontColor=#EEEEEE;strokeColor=#BAC8D3;" vertex="1" parent="1"><mxGeometry y="200" width="240" height="86" as="geometry"/></mxCell><mxCell id="3" value="advisorService: AdvisorService " style="text;strokeColor=none;fillColor=none;align=left;verticalAlign=top;spacingLeft=4;spacingRight=4;overflow=hidden;rotatable=0;points=[[0,0.5],[1,0.5]];portConstraint=eastwest;fontColor=#EEEEEE;" vertex="1" parent="2"><mxGeometry y="26" width="240" height="26" as="geometry"/></mxCell><mxCell id="4" value="" style="line;strokeWidth=1;fillColor=none;align=left;verticalAlign=middle;spacingTop=-1;spacingLeft=3;spacingRight=3;rotatable=0;labelPosition=right;points=[];portConstraint=eastwest;strokeColor=#BAC8D3;fontColor=#EEEEEE;" vertex="1" parent="2"><mxGeometry y="52" width="240" height="8" as="geometry"/></mxCell><mxCell id="5" value="+ getWeather(): ResponseEntity&lt;Weather&gt;" style="text;strokeColor=none;fillColor=none;align=left;verticalAlign=top;spacingLeft=4;spacingRight=4;overflow=hidden;rotatable=0;points=[[0,0.5],[1,0.5]];portConstraint=eastwest;fontColor=#EEEEEE;" vertex="1" parent="2"><mxGeometry y="60" width="240" height="26" as="geometry"/></mxCell><mxCell id="7" value="AdvisorService" style="swimlane;fontStyle=1;align=center;verticalAlign=top;childLayout=stackLayout;horizontal=1;startSize=26;horizontalStack=0;resizeParent=1;resizeParentMax=0;resizeLast=0;collapsible=1;marginBottom=0;fillColor=#09555B;fontColor=#EEEEEE;strokeColor=#BAC8D3;" vertex="1" parent="1"><mxGeometry x="270" y="200" width="320" height="86" as="geometry"/></mxCell><mxCell id="8" value="externalWeatherAPIService: ExternalWeatherAPIService" style="text;strokeColor=none;fillColor=none;align=left;verticalAlign=top;spacingLeft=4;spacingRight=4;overflow=hidden;rotatable=0;points=[[0,0.5],[1,0.5]];portConstraint=eastwest;fontColor=#EEEEEE;" vertex="1" parent="7"><mxGeometry y="26" width="320" height="26" as="geometry"/></mxCell><mxCell id="9" value="" style="line;strokeWidth=1;fillColor=none;align=left;verticalAlign=middle;spacingTop=-1;spacingLeft=3;spacingRight=3;rotatable=0;labelPosition=right;points=[];portConstraint=eastwest;strokeColor=#BAC8D3;fontColor=#EEEEEE;" vertex="1" parent="7"><mxGeometry y="52" width="320" height="8" as="geometry"/></mxCell><mxCell id="10" value="+ getWeather(): Weather" style="text;strokeColor=none;fillColor=none;align=left;verticalAlign=top;spacingLeft=4;spacingRight=4;overflow=hidden;rotatable=0;points=[[0,0.5],[1,0.5]];portConstraint=eastwest;fontColor=#EEEEEE;" vertex="1" parent="7"><mxGeometry y="60" width="320" height="26" as="geometry"/></mxCell><mxCell id="11" value="OpenWeatherAPIServiceImp" style="swimlane;fontStyle=1;align=center;verticalAlign=top;childLayout=stackLayout;horizontal=1;startSize=26;horizontalStack=0;resizeParent=1;resizeParentMax=0;resizeLast=0;collapsible=1;marginBottom=0;fillColor=#09555B;fontColor=#EEEEEE;strokeColor=#BAC8D3;" vertex="1" parent="1"><mxGeometry x="626" y="385" width="201" height="60" as="geometry"/></mxCell><mxCell id="13" value="" style="line;strokeWidth=1;fillColor=none;align=left;verticalAlign=middle;spacingTop=-1;spacingLeft=3;spacingRight=3;rotatable=0;labelPosition=right;points=[];portConstraint=eastwest;strokeColor=#BAC8D3;fontColor=#EEEEEE;" vertex="1" parent="11"><mxGeometry y="26" width="201" height="8" as="geometry"/></mxCell><mxCell id="14" value="+ getWeather(): Weather" style="text;strokeColor=none;fillColor=none;align=left;verticalAlign=top;spacingLeft=4;spacingRight=4;overflow=hidden;rotatable=0;points=[[0,0.5],[1,0.5]];portConstraint=eastwest;fontColor=#EEEEEE;" vertex="1" parent="11"><mxGeometry y="34" width="201" height="26" as="geometry"/></mxCell><mxCell id="16" value="&lt;&lt;Interface&gt;&gt;&#10;ExternalWeatherAPIService" style="swimlane;fontStyle=1;align=center;verticalAlign=top;childLayout=stackLayout;horizontal=1;startSize=40;horizontalStack=0;resizeParent=1;resizeParentMax=0;resizeLast=0;collapsible=1;marginBottom=0;fillColor=#09555B;fontColor=#EEEEEE;strokeColor=#BAC8D3;" vertex="1" parent="1"><mxGeometry x="627" y="200" width="200" height="74" as="geometry"/></mxCell><mxCell id="18" value="" style="line;strokeWidth=1;fillColor=none;align=left;verticalAlign=middle;spacingTop=-1;spacingLeft=3;spacingRight=3;rotatable=0;labelPosition=right;points=[];portConstraint=eastwest;strokeColor=#BAC8D3;fontColor=#EEEEEE;" vertex="1" parent="16"><mxGeometry y="40" width="200" height="8" as="geometry"/></mxCell><mxCell id="19" value="+ getWeather(): Weather" style="text;strokeColor=none;fillColor=none;align=left;verticalAlign=top;spacingLeft=4;spacingRight=4;overflow=hidden;rotatable=0;points=[[0,0.5],[1,0.5]];portConstraint=eastwest;fontColor=#EEEEEE;" vertex="1" parent="16"><mxGeometry y="48" width="200" height="26" as="geometry"/></mxCell><mxCell id="20" value="Weather" style="swimlane;fontStyle=1;align=center;verticalAlign=top;childLayout=stackLayout;horizontal=1;startSize=26;horizontalStack=0;resizeParent=1;resizeParentMax=0;resizeLast=0;collapsible=1;marginBottom=0;fillColor=#09555B;fontColor=#EEEEEE;strokeColor=#BAC8D3;" vertex="1" parent="1"><mxGeometry x="281" y="419" width="240" height="112" as="geometry"/></mxCell><mxCell id="23" value="temp: double" style="text;strokeColor=none;fillColor=none;align=left;verticalAlign=top;spacingLeft=4;spacingRight=4;overflow=hidden;rotatable=0;points=[[0,0.5],[1,0.5]];portConstraint=eastwest;fontColor=#EEEEEE;" vertex="1" parent="20"><mxGeometry y="26" width="240" height="26" as="geometry"/></mxCell><mxCell id="24" value="rain: long" style="text;strokeColor=none;fillColor=none;align=left;verticalAlign=top;spacingLeft=4;spacingRight=4;overflow=hidden;rotatable=0;points=[[0,0.5],[1,0.5]];portConstraint=eastwest;fontColor=#EEEEEE;" vertex="1" parent="20"><mxGeometry y="52" width="240" height="26" as="geometry"/></mxCell><mxCell id="25" value="cloud: int" style="text;strokeColor=none;fillColor=none;align=left;verticalAlign=top;spacingLeft=4;spacingRight=4;overflow=hidden;rotatable=0;points=[[0,0.5],[1,0.5]];portConstraint=eastwest;fontColor=#EEEEEE;" vertex="1" parent="20"><mxGeometry y="78" width="240" height="26" as="geometry"/></mxCell><mxCell id="22" value="" style="line;strokeWidth=1;fillColor=none;align=left;verticalAlign=middle;spacingTop=-1;spacingLeft=3;spacingRight=3;rotatable=0;labelPosition=right;points=[];portConstraint=eastwest;strokeColor=#BAC8D3;fontColor=#EEEEEE;" vertex="1" parent="20"><mxGeometry y="104" width="240" height="8" as="geometry"/></mxCell><mxCell id="26" value="Extends" style="endArrow=block;endSize=16;endFill=0;html=1;rounded=1;sketch=0;strokeColor=#0B4D6A;curved=0;exitX=0.455;exitY=1.115;exitDx=0;exitDy=0;exitPerimeter=0;entryX=0.5;entryY=0;entryDx=0;entryDy=0;" edge="1" parent="1" source="19" target="11"><mxGeometry width="160" relative="1" as="geometry"><mxPoint x="635" y="576" as="sourcePoint"/><mxPoint x="795" y="576" as="targetPoint"/></mxGeometry></mxCell><mxCell id="27" value="" style="endArrow=block;endFill=1;html=1;edgeStyle=orthogonalEdgeStyle;align=left;verticalAlign=top;rounded=1;sketch=0;strokeColor=#0B4D6A;curved=0;exitX=1;exitY=0.5;exitDx=0;exitDy=0;entryX=0;entryY=0.5;entryDx=0;entryDy=0;" edge="1" parent="1" source="5" target="24"><mxGeometry x="-1" relative="1" as="geometry"><mxPoint x="104" y="368" as="sourcePoint"/><mxPoint x="264" y="368" as="targetPoint"/></mxGeometry></mxCell><mxCell id="28" value="1" style="edgeLabel;resizable=0;html=1;align=left;verticalAlign=bottom;rounded=0;sketch=0;fontColor=#EEEEEE;strokeColor=#BAC8D3;fillColor=#09555B;" connectable="0" vertex="1" parent="27"><mxGeometry x="-1" relative="1" as="geometry"/></mxCell><mxCell id="29" value="" style="endArrow=block;endFill=1;html=1;edgeStyle=orthogonalEdgeStyle;align=left;verticalAlign=top;rounded=1;sketch=0;strokeColor=#0B4D6A;curved=0;exitX=1;exitY=0.5;exitDx=0;exitDy=0;" edge="1" parent="1" source="10" target="24"><mxGeometry x="-0.8435" y="12" relative="1" as="geometry"><mxPoint x="250" y="283" as="sourcePoint"/><mxPoint x="531" y="484" as="targetPoint"/><mxPoint as="offset"/></mxGeometry></mxCell><mxCell id="30" value="1" style="edgeLabel;resizable=0;html=1;align=left;verticalAlign=bottom;rounded=0;sketch=0;fontColor=#EEEEEE;strokeColor=#BAC8D3;fillColor=#09555B;" connectable="0" vertex="1" parent="29"><mxGeometry x="-1" relative="1" as="geometry"/></mxCell><mxCell id="31" value="" style="endArrow=block;endFill=1;html=1;edgeStyle=orthogonalEdgeStyle;align=left;verticalAlign=top;rounded=1;sketch=0;strokeColor=#0B4D6A;curved=0;entryX=0.381;entryY=0.012;entryDx=0;entryDy=0;entryPerimeter=0;" edge="1" parent="1" source="3" target="7"><mxGeometry x="-1" relative="1" as="geometry"><mxPoint x="260" y="293" as="sourcePoint"/><mxPoint x="301" y="504" as="targetPoint"/></mxGeometry></mxCell><mxCell id="32" value="1" style="edgeLabel;resizable=0;html=1;align=left;verticalAlign=bottom;rounded=0;sketch=0;fontColor=#EEEEEE;strokeColor=#BAC8D3;fillColor=#09555B;" connectable="0" vertex="1" parent="31"><mxGeometry x="-1" relative="1" as="geometry"/></mxCell><mxCell id="33" value="" style="endArrow=block;endFill=1;html=1;edgeStyle=orthogonalEdgeStyle;align=left;verticalAlign=top;rounded=1;sketch=0;strokeColor=#0B4D6A;curved=0;entryX=0.5;entryY=0;entryDx=0;entryDy=0;exitX=1;exitY=0.5;exitDx=0;exitDy=0;" edge="1" parent="1" source="8" target="16"><mxGeometry x="-1" relative="1" as="geometry"><mxPoint x="438.08000000000004" y="107.97" as="sourcePoint"/><mxPoint x="590.0000000000001" y="70.00200000000004" as="targetPoint"/></mxGeometry></mxCell><mxCell id="34" value="1" style="edgeLabel;resizable=0;html=1;align=left;verticalAlign=bottom;rounded=0;sketch=0;fontColor=#EEEEEE;strokeColor=#BAC8D3;fillColor=#09555B;" connectable="0" vertex="1" parent="33"><mxGeometry x="-1" relative="1" as="geometry"/></mxCell><mxCell id="35" value="" style="endArrow=block;endFill=1;html=1;edgeStyle=orthogonalEdgeStyle;align=left;verticalAlign=top;rounded=1;sketch=0;strokeColor=#0B4D6A;curved=0;exitX=0;exitY=0.5;exitDx=0;exitDy=0;entryX=1;entryY=0.5;entryDx=0;entryDy=0;" edge="1" parent="1" source="19" target="24"><mxGeometry x="-0.8435" y="12" relative="1" as="geometry"><mxPoint x="600" y="283" as="sourcePoint"/><mxPoint x="522.1199999999999" y="478.99800000000005" as="targetPoint"/><mxPoint as="offset"/><Array as="points"><mxPoint x="613" y="261"/><mxPoint x="613" y="484"/></Array></mxGeometry></mxCell><mxCell id="36" value="1" style="edgeLabel;resizable=0;html=1;align=left;verticalAlign=bottom;rounded=0;sketch=0;fontColor=#EEEEEE;strokeColor=#BAC8D3;fillColor=#09555B;" connectable="0" vertex="1" parent="35"><mxGeometry x="-1" relative="1" as="geometry"/></mxCell></root></mxGraphModel></diagram></mxfile>